<svg width="512" height="512" viewBox="0 0 96 96" fill="none" xmlns="http://www.w3.org/2000/svg">
  <title>SEEHWA circular mark</title>
  <rect width="96" height="96" rx="18" fill="#F2EFDA"/>
  <g transform="translate(9 9)">
<g clip-path="url(#clip0_802_287)">
<path d="M45.5088 22.4491C45.5349 22.423 45.5609 22.4035 45.5935 22.3774C45.5609 22.397 45.5349 22.423 45.5088 22.4426V22.4491ZM63.2374 39.9105C63.2374 39.9105 63.2374 39.9171 63.2439 39.9171L63.2374 39.9105Z" fill="#1B372E"/>
<path d="M65.2506 32.7695C65.2506 32.9258 65.2441 33.0822 65.2376 33.2386C65.2376 33.3819 65.2246 33.5253 65.2115 33.6686C65.2115 33.6882 65.2115 33.7012 65.2115 33.7142C65.1985 33.825 65.192 33.9357 65.1789 34.04C65.1594 34.255 65.1333 34.47 65.1008 34.6785C65.0812 34.8023 65.0617 34.9261 65.0421 35.0499C65.0226 35.1737 64.9965 35.2975 64.9704 35.4213C64.9444 35.5581 64.9183 35.7014 64.8792 35.8383C64.8401 36.0077 64.801 36.1705 64.7554 36.3399C64.7163 36.4963 64.6642 36.6592 64.6186 36.8156C64.4688 37.2912 64.2994 37.7668 64.0974 38.2229C64.0583 38.3141 64.0192 38.3988 63.9801 38.4835C63.941 38.5747 63.9019 38.666 63.8563 38.7507C63.7977 38.8745 63.739 38.9983 63.6739 39.122C63.6283 39.2133 63.5827 39.3045 63.5305 39.3957C63.498 39.4608 63.4654 39.526 63.4263 39.5912C63.3872 39.6693 63.3416 39.741 63.3025 39.8192C63.2829 39.8518 63.2634 39.8844 63.2439 39.9169H63.2373C63.2373 39.9169 63.2308 39.9169 63.2308 39.9104C63.2243 39.9104 63.2178 39.9039 63.2178 39.8974C62.892 39.5912 62.5662 39.2849 62.2535 38.9787L62.0841 38.8093C60.3445 37.1413 58.6179 35.4017 56.9499 33.7207C55.8749 32.6392 54.8063 31.5641 53.7248 30.4956C53.2882 30.059 52.8452 29.6355 52.4086 29.2055C51.5486 28.3715 50.6625 27.5115 49.822 26.6384L49.5288 26.3387C48.4147 25.1855 47.2614 23.9931 46.0365 22.9051C45.8606 22.7487 45.6912 22.5988 45.5283 22.4555C45.5544 22.4294 45.5804 22.4099 45.613 22.3838C45.6717 22.3382 45.7238 22.2926 45.7889 22.247C45.7955 22.2405 45.802 22.234 45.8085 22.2275C45.9323 22.1297 46.0561 22.0385 46.1864 21.9538C46.2124 21.9343 46.245 21.9082 46.2776 21.8887C46.3949 21.8105 46.5056 21.7323 46.6229 21.6606C47.1311 21.3348 47.6654 21.0482 48.2192 20.8071C48.3691 20.7419 48.5254 20.6768 48.6753 20.6181C48.6948 20.6051 48.7144 20.5986 48.7339 20.5921C48.8838 20.5334 49.0271 20.4813 49.177 20.4292C49.2096 20.4162 49.2486 20.4031 49.2812 20.3966C49.405 20.351 49.5353 20.3119 49.6656 20.2793C49.7178 20.2598 49.7764 20.2468 49.8285 20.2337C49.9719 20.1946 50.1217 20.1555 50.2651 20.123C50.2716 20.123 50.2781 20.123 50.2846 20.1165C50.4084 20.0839 50.5387 20.0578 50.669 20.0318C50.7667 20.0122 50.858 19.9927 50.9557 19.9796C51.0925 19.9536 51.2424 19.934 51.3792 19.9145C51.5551 19.8884 51.7376 19.8689 51.9135 19.8558C52.0959 19.8363 52.2783 19.8233 52.4608 19.8167C52.6432 19.8037 52.8322 19.8037 53.0146 19.8037C53.8551 19.8037 54.7021 19.8949 55.5361 20.0774C55.8488 20.1425 56.155 20.2272 56.4613 20.3249C56.9695 20.4878 57.4646 20.6833 57.9468 20.9113C62.449 23.0875 65.3223 27.7395 65.2702 32.7695H65.2506Z" fill="#EDD62F"/>
<path d="M39.0043 0C28.8114 0 19.1687 3.90924 11.8529 11.0041C4.55431 18.0838 0.353734 27.5684 0.0262189 37.7118C0.00908147 38.106 0.00146484 38.5268 0.00146484 38.999C0.00146484 39.2447 0.00527316 39.4903 0.0128898 39.7321C0.125235 45.9016 1.71901 52.0178 4.62095 57.4237C7.42768 62.6544 11.4664 67.2472 16.3011 70.7109C16.3087 70.7204 16.3182 70.728 16.3296 70.7356C16.402 70.7871 16.4743 70.8385 16.5467 70.888C16.72 71.0117 16.899 71.1336 17.0741 71.2536C17.2512 71.3773 17.4302 71.4973 17.6111 71.6115C17.6149 71.6154 17.6263 71.623 17.6263 71.623C17.8034 71.741 17.9843 71.8553 18.1633 71.9676C18.2642 72.0305 18.3652 72.0933 18.4661 72.1561C18.4718 72.158 18.4775 72.1618 18.4832 72.1657C24.3823 75.8274 31.182 77.8419 38.1494 77.9905C38.4331 77.9962 38.7168 78 39.0043 78C39.4956 78 40.0097 77.9905 40.5276 77.9714C49.7685 77.6154 58.6057 73.9651 65.4169 67.6947C72.1881 61.4586 76.5486 53.0213 77.6968 43.9346C77.7882 43.1977 77.8625 42.4322 77.9158 41.6573C77.9748 40.7756 78.0034 39.8807 78.0034 38.999C78.0034 17.4954 60.508 0 39.0043 0ZM18.3195 68.9C18.2243 68.8334 17.9291 68.6277 17.9291 68.6277C16.3163 67.4814 14.7587 66.1618 13.2982 64.7033C6.68887 58.0901 2.91483 49.3158 2.67109 39.9911C2.66538 39.8788 2.66348 39.7664 2.66348 39.6541C3.32422 39.0524 3.91641 38.3954 4.49337 37.7575C4.87992 37.3234 5.36357 36.7845 5.83961 36.3161C7.02209 35.1584 8.08461 34.5738 9.0862 34.5262C9.12428 34.5243 9.16237 34.5243 9.20045 34.5243C10.2058 34.5243 11.1294 35.105 11.9767 35.7334C12.3004 35.9771 12.6146 36.2266 12.9078 36.4608C13.6638 37.0663 14.4464 37.6909 15.3585 38.1765C16.5733 38.8258 17.9348 39.1552 19.401 39.1552C21.0614 39.1552 22.8209 38.7153 24.4889 37.8813C27.6175 36.3104 29.7825 33.675 31.4867 31.3043C31.8371 30.8188 32.1836 30.3142 32.5188 29.8267L32.7473 29.4916C34.0783 27.5494 35.4531 25.5405 37.2163 24.0362C38.0237 23.3526 38.8634 23.006 39.7089 23.006C39.9602 23.006 40.2154 23.0384 40.4705 23.0974C41.9024 23.444 43.2049 24.417 44.1798 25.2282C44.654 25.6185 45.1452 26.0603 45.7108 26.5992C41.9139 27.6084 37.6314 29.0289 34.2515 31.7994C32.3607 33.3532 30.904 35.2193 30.0415 37.1996C29.0913 39.378 28.8038 41.7372 29.2131 44.0203C29.6149 46.2824 30.8298 48.3447 32.6311 49.8242C33.1243 50.2279 33.6594 50.5954 34.1773 50.9533L34.2592 51.0086C35.3045 51.7322 36.2909 52.4138 36.9421 53.3412C38.0922 54.9883 37.5591 57.079 36.6774 58.4881C35.5083 60.3504 33.587 61.7747 31.8771 62.9629C28.1183 65.5773 23.8415 67.5062 19.1668 68.6963C18.8926 68.7648 18.6089 68.8334 18.3195 68.9ZM38.7853 75.1818L38.6178 75.3456C38.454 75.3456 38.2922 75.3437 38.1246 75.338C32.5607 75.2047 27.0576 73.7899 22.1792 71.2383C25.6524 70.1663 28.9237 68.6887 31.9056 66.8454C34.4001 65.305 36.2509 63.8826 37.7266 62.3707C39.1833 60.8759 40.9123 58.4538 40.8818 55.4091C40.8647 54.019 40.4629 52.7128 39.7222 51.6331C39.0196 50.6011 38.0922 49.828 37.3629 49.2682C36.9973 48.9883 36.6165 48.7198 36.2585 48.4684L36.2414 48.457C35.0608 47.6192 33.9469 46.8289 33.2538 45.6731C32.3988 44.2469 32.0865 42.3923 32.3969 40.5871C32.7092 38.7953 33.6117 37.0549 35.0075 35.5582C38.2103 32.1231 42.9212 30.6874 47.0875 29.6116C47.514 29.4992 47.9462 29.3907 48.3785 29.2821C48.5937 29.5011 48.8184 29.7296 49.0602 29.9733C45.8574 31.034 42.8583 32.8086 40.3658 35.1165C38.812 36.556 37.2068 38.3707 37.104 40.9108C37.0221 42.9692 37.9304 45.1704 39.5946 46.9508C41.0075 48.4646 42.7612 49.5157 44.4578 50.5325L44.8558 50.7744C46.2782 51.6293 48.0491 52.6918 49.1402 54.1847C51.8726 57.9149 49.323 62.7306 48.1005 64.6271C45.5756 68.542 42.129 71.9124 38.7853 75.1818ZM63.01 38.3954C62.972 38.4773 62.9282 38.5573 62.8786 38.643C62.852 38.7001 62.8215 38.7572 62.7873 38.8162C62.7701 38.8467 62.7549 38.8753 62.7377 38.9057C62.5092 38.6906 62.2846 38.4735 62.0618 38.2602L61.8485 38.0527C60.3309 36.5979 58.8209 35.0765 57.3604 33.6065L57.1395 33.3837C56.197 32.4373 55.1916 31.43 54.1728 30.4246C53.8929 30.1447 53.6092 29.8686 53.3255 29.5906L52.9028 29.1793C52.1354 28.4329 51.3433 27.6617 50.5892 26.8848L50.3207 26.6087C49.2982 25.5519 48.2414 24.4608 47.1027 23.4459C47.1027 23.4459 46.8571 23.2288 46.8037 23.1812C46.8209 23.1679 46.8818 23.1222 46.8818 23.1222C46.9808 23.0422 47.0913 22.9622 47.2303 22.8651C47.2493 22.8499 47.2741 22.8308 47.2969 22.8156L47.3331 22.7909C47.4245 22.728 47.514 22.6671 47.6111 22.6081C48.0605 22.3205 48.5461 22.0616 49.0545 21.8369C49.182 21.7798 49.3191 21.7245 49.4734 21.6655C49.4867 21.6598 49.5 21.656 49.5229 21.6484C49.6448 21.5989 49.7685 21.5551 49.8923 21.5132L49.938 21.4979C49.9551 21.4903 49.9742 21.4846 49.9913 21.4808C50.0008 21.4789 50.0084 21.477 50.0161 21.4732C50.1513 21.4275 50.2579 21.3951 50.3645 21.3666C50.4121 21.3513 50.4597 21.3361 50.5092 21.3228C50.6368 21.2866 50.7663 21.2542 50.8958 21.2275C50.9072 21.2275 50.9167 21.2218 50.9263 21.218C51.0367 21.1914 51.1528 21.1666 51.2633 21.1457C51.3471 21.1285 51.4347 21.1114 51.5261 21.0981C51.6479 21.0771 51.7736 21.0581 51.905 21.039C52.0668 21.0181 52.2268 20.999 52.3848 20.9819C52.541 20.9686 52.7066 20.9553 52.8837 20.9495C53.0456 20.94 53.2131 20.9362 53.3826 20.9362C54.1386 20.9362 54.904 21.02 55.6524 21.1818C55.938 21.2447 56.2103 21.3189 56.4845 21.4027C56.9529 21.5532 57.4042 21.7321 57.8212 21.9321C61.8904 23.8972 64.4858 28.1035 64.4362 32.6468C64.4362 32.7534 64.4324 32.86 64.4286 32.9648L64.4248 33.0695C64.421 33.199 64.4134 33.3266 64.4039 33.4427C64.4001 33.4637 64.4001 33.4846 64.4001 33.5017L64.3905 33.6122C64.3848 33.6712 64.3791 33.7302 64.3715 33.7969C64.3563 33.9702 64.3334 34.153 64.2991 34.3739C64.2858 34.4843 64.2668 34.5966 64.2458 34.7109C64.2268 34.8194 64.2058 34.928 64.1792 35.0498C64.1601 35.1698 64.1316 35.2878 64.0973 35.4345C64.063 35.5792 64.0288 35.7258 63.985 35.8743C63.9469 36.0171 63.9069 36.1599 63.8631 36.3028C63.7222 36.7483 63.5641 37.1768 63.3928 37.5805C63.3585 37.6604 63.3242 37.7366 63.2861 37.8166C63.2519 37.8965 63.2176 37.9746 63.1738 38.0603C63.1224 38.1745 63.071 38.2793 63.01 38.3954ZM63.05 41.1089V41.1127L63.0481 41.1089H63.05ZM64.7066 64.7033C58.9923 70.4157 51.4918 74.0812 43.5324 75.0657C45.408 73.1653 47.7292 70.7033 49.759 67.9518C53.0989 63.4313 54.2871 59.2136 53.2912 55.4205C52.2649 51.5056 49.0716 49.5481 45.985 47.6553C45.5737 47.4059 44.9643 47.0308 44.3893 46.6557C43.0583 45.7912 41.4378 44.5763 40.7219 42.8245C40.4153 42.0743 40.2991 41.3393 40.3905 40.6957C40.4762 40.0711 40.798 39.4275 41.3502 38.7801C43.8333 35.8534 47.613 33.6065 51.7336 32.603C52.8304 33.6807 53.952 34.808 54.944 35.8077L55.2677 36.1333C56.4197 37.291 57.6098 38.4887 58.8018 39.6484C58.9256 39.7664 59.0494 39.8883 59.1712 40.0083L59.3845 40.2177C60.3785 41.1945 61.4067 42.2056 62.5759 43.0416C63.7584 43.8927 65.1141 44.5573 66.6051 45.0181C68.0313 45.4618 69.5146 45.6884 71.017 45.6884C72.3271 45.6884 73.6086 45.5151 74.8291 45.1761C73.5724 52.5852 70.0764 59.3316 64.7066 64.7033ZM75.2747 41.3678L75.2614 41.5811C73.9532 42.1333 72.4889 42.4265 71.0189 42.4265C70.2534 42.4265 69.4842 42.3485 68.732 42.1942C67.5077 41.9467 66.3652 41.524 65.3331 40.9356C68.2712 36.1143 68.4712 29.9695 65.832 25.2244C63.2823 20.6392 58.381 17.6782 53.3426 17.6782C52.899 17.6782 52.4496 17.701 52.0116 17.7467C49.0278 18.059 46.2306 19.2739 44.1208 21.1742C42.548 20.2145 41.0342 19.7271 39.6194 19.7271C38.8463 19.7271 38.0941 19.8737 37.382 20.1612C35.6492 20.86 34.3258 22.1968 33.3661 23.284C32.2198 24.5808 31.2392 25.9651 30.3328 27.2694C30.1919 27.4656 30.0548 27.6674 29.9177 27.8692L29.8091 28.0273C28.2858 30.2342 26.7092 32.5154 24.5556 34.0387C23.3369 34.8956 21.4575 35.9181 19.4201 35.9181C18.7841 35.9181 18.169 35.8153 17.5902 35.6116C16.5372 35.244 15.646 34.5281 14.7016 33.7702L14.6711 33.7455C13.5724 32.8562 12.3252 31.8451 10.72 31.4434C10.2573 31.3291 9.7755 31.2701 9.28994 31.2701C8.04463 31.2701 6.76503 31.6509 5.59017 32.3707C4.52574 33.0238 3.65364 33.8654 2.91102 34.6595C3.8669 26.6201 7.54193 19.0549 13.2982 13.2948C20.1646 6.43224 29.2931 2.65059 39.0043 2.65059C48.7155 2.65059 57.8383 6.43224 64.7066 13.2948C71.5711 20.165 75.3528 29.2936 75.3528 38.999C75.3528 39.8445 75.328 40.6176 75.2747 41.3678Z" fill="#1B372E"/>
</g>
<defs>
<clipPath id="clip0_802_287">
<rect width="78.0019" height="78" fill="white"/>
</clipPath>
</defs>
  </g>
</svg>
